# File created by Blade
# Date/Time:  Mon Nov 18 17:26:10 2013
# Frame Rate: 100.000 fps
#------------------------------------------------------
:FULLY-SPECIFIED
:DEGREES
151
root -40.074672 -3.153461 38.876023 8.118314 -3.987102 18.843036
Spine 22.510778 -3.412528 2.102054
Spine1 8.392071 -1.178968 4.300916
Spine2 -21.775234 -1.527679 -0.191054
NeckDummy -0.096689 0.158600 0.849962 14.075254 -0.778937 0.200645
Neck 4.610322 -14.773920 42.983020
Head -0.391109 -0.012416 0.338581 -6.011436 -4.818824 -1.965452
LeftShoulderDummy -0.135594 0.180647 0.873228 14.062053 -0.927885 0.370825
LeftShoulder 5.821540 -8.853957 17.290618
LeftArm 19.319393 36.710365 18.560970
LeftForeArm 56.907651
LeftForeArmRoll 17.458749
LeftHand -32.870207 -21.149405 9.272989
LeftHandThumb1 14.297461 4.122520
LeftHandIndex1 -0.904496 43.526227
LeftHandPinky1 1.548930 64.374296
RightShoulderDummy -0.090330 0.173607 0.815893 14.035078 0.775397 -0.131971
RightShoulder 9.034804 4.752535 9.576027
RightArm 0.776819 67.168285 32.131582
RightForeArm 101.083955
RightForeArmRoll 26.823408
RightHand -45.564388 -22.471562 6.756704
RightHandThumb1 17.447301 10.110751
RightHandIndex1 5.467394 37.135484
RightHandPinky1 12.866927 71.547650
LeftUpLeg -13.655991 24.837577 -42.428141
LeftLeg 40.364617
LeftFoot 0.037485 -0.664232 -1.266693 -27.061072 22.455815 0.810955
LeftToeBase -0.435224
RightUpLeg -0.295641 16.616554 -31.387039
RightLeg 51.218778
RightFoot -0.581206 0.887545 0.905205 -20.675014 6.501826 -23.020705
RightToeBase -1.014940
152
root -40.215404 -3.172907 38.908827 8.015227 -3.839731 18.766931
Spine 22.498614 -3.292524 2.063535
Spine1 8.408123 -1.136787 4.260651
Spine2 -21.729414 -1.623387 -0.251246
NeckDummy -0.099379 0.155860 0.845533 14.092021 -0.736555 0.071472
Neck 4.567220 -14.760221 42.993483
Head -0.403652 -0.009956 0.337128 -5.985853 -4.940644 -2.018206
LeftShoulderDummy -0.139184 0.175306 0.868240 14.079917 -0.888856 0.247404
LeftShoulder 6.006866 -8.995162 17.490233
LeftArm 19.406753 37.048644 18.316955
LeftForeArm 57.309547
LeftForeArmRoll 17.231838
LeftHand -32.908176 -21.047853 9.315126
LeftHandThumb1 14.111259 4.380340
LeftHandIndex1 -1.008510 43.319491
LeftHandPinky1 1.463887 64.091317
RightShoulderDummy -0.093737 0.173348 0.812172 14.052079 0.735279 -0.004472
RightShoulder 9.053376 4.671000 9.610355
RightArm 0.777212 67.123146 32.337865
RightForeArm 101.076296
RightForeArmRoll 26.437030
RightHand -45.582964 -22.551757 6.968251
RightHandThumb1 17.017564 10.230074
RightHandIndex1 5.555592 37.298083
RightHandPinky1 12.953986 71.654596
LeftUpLeg -13.853903 24.849920 -42.117007
LeftLeg 40.053753
LeftFoot 0.042657 -0.662838 -1.253709 -27.289039 22.746555 1.160372
LeftToeBase -0.377708
RightUpLeg -0.367425 16.547175 -31.485702
RightLeg 51.520913
RightFoot -0.564090 0.845762 0.873552 -20.670521 6.932079 -22.998379
RightToeBase -1.148397
153
root -40.355864 -3.190346 38.944575 7.882951 -3.696619 18.734242
Spine 22.567947 -3.146338 1.964008
Spine1 8.414958 -1.089186 4.101343
Spine2 -21.744525 -1.792876 -0.238168
NeckDummy -0.106669 0.154556 0.846270 14.104210 -0.775055 0.192167
Neck 4.711160 -14.951642 43.116865
Head -0.403565 -0.007623 0.333446 -5.961071 -4.949566 -2.017208
LeftShoulderDummy -0.144729 0.176096 0.869602 14.091801 -0.921539 0.354826
LeftShoulder 6.284341 -9.420218 17.799081
LeftArm 19.322399 37.239293 18.074091
LeftForeArm 57.684078
LeftForeArmRoll 17.125058
LeftHand -32.935560 -21.254714 9.245745
LeftHandThumb1 14.231619 4.077039
LeftHandIndex1 -0.885235 43.181100
LeftHandPinky1 1.633765 63.940008
RightShoulderDummy -0.100787 0.169318 0.812264 14.065046 0.772819 -0.124782
RightShoulder 9.006484 4.843626 9.651611
RightArm 0.702319 67.109513 32.573214
RightForeArm 101.070487
RightForeArmRoll 26.108093
RightHand -45.619818 -22.458123 7.014080
RightHandThumb1 16.826235 10.318428
RightHandIndex1 5.656234 37.218716
RightHandPinky1 13.316625 71.442657
LeftUpLeg -14.161331 24.828499 -41.797157
LeftLeg 39.772972
LeftFoot 0.042157 -0.666307 -1.236141 -27.530224 23.077363 1.487003
LeftToeBase -0.352048
RightUpLeg -0.303201 16.517361 -31.566873
RightLeg 51.866775
RightFoot -0.577213 0.875512 0.927727 -20.598063 6.394413 -23.419652
RightToeBase -0.951608
154
root -40.489114 -3.207056 38.974320 7.802026 -3.509979 18.736976
Spine 22.595832 -3.057926 1.884634
Spine1 8.424898 -1.060741 3.953299
Spine2 -21.760992 -1.862232 -0.234377
NeckDummy -0.108826 0.155056 0.845455 14.142960 -0.792799 0.197739
Neck 4.768771 -15.073721 43.202077
Head -0.408778 -0.007457 0.330300 -5.918376 -4.983624 -2.031763
LeftShoulderDummy -0.147332 0.176627 0.869482 14.130765 -0.940888 0.357307
LeftShoulder 6.529588 -9.763391 18.062635
LeftArm 19.346682 37.466493 17.906832
LeftForeArm 57.976539
LeftForeArmRoll 17.027318
LeftHand -33.104735 -21.455793 9.549078
LeftHandThumb1 14.210145 4.432514
LeftHandIndex1 -1.038254 43.372654
LeftHandPinky1 1.493432 64.178763
RightShoulderDummy -0.103658 0.169908 0.810997 14.103505 0.792050 -0.127720
RightShoulder 9.017042 4.909784 9.660863
RightArm 0.708409 67.053033 32.756892
RightForeArm 101.118256
RightForeArmRoll 25.828746
RightHand -45.591307 -22.317077 6.917645
RightHandThumb1 16.546087 10.327649
RightHandIndex1 5.872902 37.395754
RightHandPinky1 13.278401 71.555643
LeftUpLeg -14.464792 24.735329 -41.524372
LeftLeg 39.469003
LeftFoot 0.042233 -0.668071 -1.220448 -27.744459 23.406529 1.839550
LeftToeBase -0.377018
RightUpLeg -0.289123 16.516578 -31.679662
RightLeg 52.189635
RightFoot -0.580892 0.841295 0.886614 -20.526811 6.724627 -23.477521
RightToeBase -1.010507
